# xmcd
# 
# Track frame offsets:
#     150
#     14132
#     27117
#     41093
#     57377
#     71916
# 
# Disc length: 1362
# 
# Revision: 2
# Processed by: cddbd v1.5.2PL0 Copyright (c) Steve Scherf et al.
# Submitted via: fre:ac v1.0.17
# 
DISCID=55055006
DTITLE=Colt Ford - Country Is As Country Does
DYEAR=2009
DGENRE=Country Rap
TTITLE0=Buck Em
TTITLE1=Huntin The World
TTITLE2=Big White Redneck
TTITLE3=Day In The Life Featuring Andy Griggs
TTITLE4=Left Yall In The Dust
TTITLE5=Dirt Road Anthem ( Live ) Featuring Brantley Gilbert Band
EXTD=Reversed Artist/Track fields corrected by M4Carbine
EXTT0=
EXTT1=
EXTT2=
EXTT3=
EXTT4=
EXTT5=
PLAYORDER=
